<svg width="224" height="40" viewBox="0 0 224 40" fill="none" xmlns="http://www.w3.org/2000/svg">
<g clip-path="url(#clip0_9_177)">
<path d="M33.8 17.8L29.97 26.03L38.2 22.2L42.03 13.97L33.8 17.8ZM37.08 20.77C36.87 21.06 36.57 21.25 36.22 21.31C36.15 21.32 36.07 21.33 36 21.33C35.72 21.33 35.46 21.25 35.23 21.08C34.94 20.87 34.75 20.57 34.69 20.22C34.63 19.87 34.71 19.51 34.92 19.23C35.13 18.94 35.43 18.75 35.78 18.69C36.13 18.63 36.48 18.71 36.77 18.92C37.06 19.13 37.25 19.43 37.31 19.78C37.37 20.13 37.29 20.48 37.08 20.77ZM36 11C40.96 11 45 15.04 45 20C45 24.96 40.96 29 36 29C31.04 29 27 24.96 27 20C27 15.04 31.04 11 36 11ZM36 10C30.48 10 26 14.48 26 20C26 25.52 30.48 30 36 30C41.52 30 46 25.52 46 20C46 14.48 41.52 10 36 10Z" fill="white"/>
</g>
<path d="M78.7812 20.3994H74.4678V23.9268H79.4785V25H73.1553V15.0469H79.4102V16.127H74.4678V19.3262H78.7812V20.3994ZM83.3955 20.3037L85.0361 17.6035H86.5127L84.0928 21.2607L86.5879 25H85.125L83.416 22.2314L81.707 25H80.2373L82.7324 21.2607L80.3125 17.6035H81.7754L83.3955 20.3037ZM94.1074 21.3838C94.1074 22.5094 93.8499 23.4163 93.335 24.1045C92.82 24.7926 92.1227 25.1367 91.2432 25.1367C90.3454 25.1367 89.639 24.8519 89.124 24.2822V27.8438H87.8594V17.6035H89.0146L89.0762 18.4238C89.5911 17.7858 90.3066 17.4668 91.2227 17.4668C92.1113 17.4668 92.8132 17.8018 93.3281 18.4717C93.8477 19.1416 94.1074 20.0736 94.1074 21.2676V21.3838ZM92.8428 21.2402C92.8428 20.4062 92.665 19.7477 92.3096 19.2646C91.9541 18.7816 91.4665 18.54 90.8467 18.54C90.0811 18.54 89.5068 18.8796 89.124 19.5586V23.0928C89.5023 23.7673 90.0811 24.1045 90.8604 24.1045C91.4665 24.1045 91.9473 23.8652 92.3027 23.3867C92.6628 22.9036 92.8428 22.1882 92.8428 21.2402ZM97.0947 25H95.8301V14.5H97.0947V25ZM98.79 21.2334C98.79 20.5088 98.9313 19.8571 99.2139 19.2783C99.501 18.6995 99.8975 18.2529 100.403 17.9385C100.914 17.624 101.495 17.4668 102.146 17.4668C103.154 17.4668 103.967 17.8154 104.587 18.5127C105.211 19.21 105.523 20.1374 105.523 21.2949V21.3838C105.523 22.1038 105.384 22.751 105.106 23.3252C104.833 23.8949 104.439 24.3392 103.924 24.6582C103.413 24.9772 102.826 25.1367 102.16 25.1367C101.158 25.1367 100.344 24.7881 99.7197 24.0908C99.0999 23.3936 98.79 22.4707 98.79 21.3223V21.2334ZM100.062 21.3838C100.062 22.2041 100.251 22.8626 100.629 23.3594C101.012 23.8561 101.522 24.1045 102.16 24.1045C102.803 24.1045 103.313 23.8538 103.691 23.3525C104.07 22.8467 104.259 22.1403 104.259 21.2334C104.259 20.4222 104.065 19.766 103.678 19.2646C103.295 18.7588 102.785 18.5059 102.146 18.5059C101.522 18.5059 101.019 18.7542 100.636 19.251C100.253 19.7477 100.062 20.4587 100.062 21.3838ZM110.685 18.7383C110.493 18.7064 110.286 18.6904 110.062 18.6904C109.233 18.6904 108.67 19.0436 108.374 19.75V25H107.109V17.6035H108.34L108.36 18.458C108.775 17.7972 109.363 17.4668 110.124 17.4668C110.37 17.4668 110.557 17.4987 110.685 17.5625V18.7383ZM114.786 25.1367C113.784 25.1367 112.968 24.8086 112.339 24.1523C111.71 23.4915 111.396 22.6097 111.396 21.5068V21.2744C111.396 20.5407 111.535 19.8867 111.812 19.3125C112.095 18.7337 112.487 18.2826 112.988 17.959C113.494 17.6309 114.041 17.4668 114.629 17.4668C115.59 17.4668 116.338 17.7835 116.871 18.417C117.404 19.0505 117.671 19.9574 117.671 21.1377V21.6641H112.66C112.678 22.3932 112.89 22.9834 113.296 23.4346C113.706 23.8812 114.226 24.1045 114.854 24.1045C115.301 24.1045 115.679 24.0133 115.989 23.8311C116.299 23.6488 116.57 23.4072 116.803 23.1064L117.575 23.708C116.955 24.6605 116.026 25.1367 114.786 25.1367ZM114.629 18.5059C114.118 18.5059 113.69 18.6927 113.344 19.0664C112.997 19.4355 112.783 19.9551 112.701 20.625H116.406V20.5293C116.37 19.8867 116.197 19.39 115.887 19.0391C115.577 18.6836 115.158 18.5059 114.629 18.5059Z" fill="white"/>
<defs>
<clipPath id="clip0_9_177">
<rect width="24" height="24" fill="white" transform="translate(24 8)"/>
</clipPath>
</defs>
</svg>
