<svg width="224" height="40" viewBox="0 0 224 40" fill="none" xmlns="http://www.w3.org/2000/svg">
<rect width="224" height="40" fill="#303030"/>
<g clip-path="url(#clip0_317_590)">
<path d="M28 18V29H34V23H38V29H44V18L36 11L28 18Z" fill="white"/>
</g>
<path d="M80.8047 25H79.4854V20.3994H74.4678V25H73.1553V15.0469H74.4678V19.3262H79.4854V15.0469H80.8047V25ZM82.6025 21.2334C82.6025 20.5088 82.7438 19.8571 83.0264 19.2783C83.3135 18.6995 83.71 18.2529 84.2158 17.9385C84.7262 17.624 85.3073 17.4668 85.959 17.4668C86.9661 17.4668 87.7796 17.8154 88.3994 18.5127C89.0238 19.21 89.3359 20.1374 89.3359 21.2949V21.3838C89.3359 22.1038 89.1969 22.751 88.9189 23.3252C88.6455 23.8949 88.2513 24.3392 87.7363 24.6582C87.2259 24.9772 86.638 25.1367 85.9727 25.1367C84.9701 25.1367 84.1566 24.7881 83.5322 24.0908C82.9124 23.3936 82.6025 22.4707 82.6025 21.3223V21.2334ZM83.874 21.3838C83.874 22.2041 84.0632 22.8626 84.4414 23.3594C84.8242 23.8561 85.3346 24.1045 85.9727 24.1045C86.6152 24.1045 87.1257 23.8538 87.5039 23.3525C87.8822 22.8467 88.0713 22.1403 88.0713 21.2334C88.0713 20.4222 87.8776 19.766 87.4902 19.2646C87.1074 18.7588 86.597 18.5059 85.959 18.5059C85.3346 18.5059 84.8311 18.7542 84.4482 19.251C84.0654 19.7477 83.874 20.4587 83.874 21.3838ZM92.1113 17.6035L92.1455 18.4238C92.6878 17.7858 93.4193 17.4668 94.3398 17.4668C95.3743 17.4668 96.0785 17.8633 96.4521 18.6562C96.6982 18.3008 97.0173 18.0137 97.4092 17.7949C97.8057 17.5762 98.2728 17.4668 98.8105 17.4668C100.433 17.4668 101.258 18.3258 101.285 20.0439V25H100.021V20.1191C100.021 19.5905 99.8997 19.1963 99.6582 18.9365C99.4167 18.6722 99.0111 18.54 98.4414 18.54C97.972 18.54 97.5824 18.6813 97.2725 18.9639C96.9626 19.2419 96.7826 19.6178 96.7324 20.0918V25H95.4609V20.1533C95.4609 19.0778 94.9346 18.54 93.8818 18.54C93.0524 18.54 92.485 18.8932 92.1797 19.5996V25H90.915V17.6035H92.1113ZM106.269 25.1367C105.266 25.1367 104.45 24.8086 103.821 24.1523C103.192 23.4915 102.878 22.6097 102.878 21.5068V21.2744C102.878 20.5407 103.017 19.8867 103.295 19.3125C103.577 18.7337 103.969 18.2826 104.471 17.959C104.977 17.6309 105.523 17.4668 106.111 17.4668C107.073 17.4668 107.82 17.7835 108.354 18.417C108.887 19.0505 109.153 19.9574 109.153 21.1377V21.6641H104.143C104.161 22.3932 104.373 22.9834 104.778 23.4346C105.188 23.8812 105.708 24.1045 106.337 24.1045C106.784 24.1045 107.162 24.0133 107.472 23.8311C107.782 23.6488 108.053 23.4072 108.285 23.1064L109.058 23.708C108.438 24.6605 107.508 25.1367 106.269 25.1367ZM106.111 18.5059C105.601 18.5059 105.173 18.6927 104.826 19.0664C104.48 19.4355 104.266 19.9551 104.184 20.625H107.889V20.5293C107.852 19.8867 107.679 19.39 107.369 19.0391C107.059 18.6836 106.64 18.5059 106.111 18.5059Z" fill="white"/>
<defs>
<clipPath id="clip0_317_590">
<rect width="24" height="24" fill="white" transform="translate(24 8)"/>
</clipPath>
</defs>
</svg>
